<?xml version="1.0" encoding="UTF-8"?>
<svg viewBox="0 0 800 600" xmlns="http://www.w3.org/2000/svg">
    <!-- Background -->
    <rect width="800" height="600" fill="#f8f9fa" />

    <!-- Title -->
    <text x="400" y="30" font-family="Arial" font-size="24" text-anchor="middle" font-weight="bold">Streamer Events Message Flow</text>

    <!-- Actor Boxes -->
    <rect x="50" y="100" width="140" height="60" rx="10" ry="10" fill="#4a86e8" stroke="#333333" stroke-width="2"/>
    <text x="120" y="135" font-family="Arial" font-size="16" text-anchor="middle" fill="white">EventManagerActor</text>

    <rect x="300" y="100" width="140" height="60" rx="10" ry="10" fill="#6aa84f" stroke="#333333" stroke-width="2"/>
    <text x="370" y="135" font-family="Arial" font-size="16" text-anchor="middle" fill="white">StreamerEventActor</text>

    <rect x="550" y="100" width="140" height="60" rx="10" ry="10" fill="#e69138" stroke="#333333" stroke-width="2"/>
    <text x="620" y="135" font-family="Arial" font-size="16" text-anchor="middle" fill="white">UserConnectionActor</text>

    <!-- Browser and Users -->
    <rect x="690" y="250" width="80" height="50" rx="10" ry="10" fill="#f9cb9c" stroke="#333333" stroke-width="1"/>
    <text x="730" y="280" font-family="Arial" font-size="14" text-anchor="middle">Browser</text>

    <rect x="50" y="250" width="80" height="50" rx="10" ry="10" fill="#f9cb9c" stroke="#333333" stroke-width="1"/>
    <text x="90" y="280" font-family="Arial" font-size="14" text-anchor="middle">User</text>

    <!-- Message flow 1: Create new event -->
    <path d="M 90 250 L 90 180 L 120 180" fill="none" stroke="#cc0000" stroke-width="2" marker-end="url(#arrow)"/>
    <text x="140" y="180" font-family="Arial" font-size="12" text-anchor="start">1. Create Event</text>

    <!-- Message flow 2: Manager creates streamer event actor -->
    <path d="M 190 130 L 300 130" fill="none" stroke="#cc0000" stroke-width="2" marker-end="url(#arrow)"/>
    <text x="220" y="120" font-family="Arial" font-size="12" text-anchor="middle">2. Create</text>

    <!-- Message flow 3: User subscribes to events -->
    <path d="M 730 250 L 730 180 L 620 180" fill="none" stroke="#6aa84f" stroke-width="2" marker-end="url(#arrow)"/>
    <text x="680" y="200" font-family="Arial" font-size="12" text-anchor="middle">3. Subscribe</text>

    <!-- Message flow 4: Connection actor registers with event actor -->
    <path d="M 550 130 L 440 130" fill="none" stroke="#6aa84f" stroke-width="2" marker-end="url(#arrow)"/>
    <text x="495" y="120" font-family="Arial" font-size="12" text-anchor="middle">4. Register</text>

    <!-- Message flow 5: Event happens -->
    <path d="M 370 160 L 370 200 L 370 240" fill="none" stroke="#674ea7" stroke-width="2" marker-end="url(#arrow)"/>
    <text x="390" y="200" font-family="Arial" font-size="12" text-anchor="start">5. Event Occurs</text>

    <!-- Message flow 6: Event pushed to connection -->
    <path d="M 400 130 L 550 130" fill="none" stroke="#674ea7" stroke-width="2" stroke-dasharray="5,3" marker-end="url(#arrow)"/>
    <text x="475" y="150" font-family="Arial" font-size="12" text-anchor="middle">6. Publish</text>

    <!-- Message flow 7: Message to browser -->
    <path d="M 620 160 L 620 200 L 700 225" fill="none" stroke="#674ea7" stroke-width="2" stroke-dasharray="5,3" marker-end="url(#arrow)"/>
    <text x="660" y="225" font-family="Arial" font-size="12" text-anchor="middle">7. Notify</text>

    <!-- Message flow 8: User sends message -->
    <path d="M 690 275 L 370 275 L 370 160" fill="none" stroke="#333333" stroke-width="2" marker-end="url(#arrow)"/>
    <text x="530" y="295" font-family="Arial" font-size="12" text-anchor="middle">8. User Chat Message</text>

    <!-- Message flow 9: Another user connection subscribes -->
    <path d="M 500 350 L 400 350 L 370 200" fill="none" stroke="#6aa84f" stroke-width="2" marker-end="url(#arrow)"/>
    <text x="420" y="370" font-family="Arial" font-size="12" text-anchor="middle">9. Late Subscription</text>

    <rect x="450" y="325" width="140" height="60" rx="10" ry="10" fill="#e69138" stroke="#333333" stroke-width="2"/>
    <text x="520" y="360" font-family="Arial" font-size="16" text-anchor="middle" fill="white">Another User</text>

    <!-- Message flow 10: Event history replay -->
    <path d="M 370 200 L 450 200 L 520 325" fill="none" stroke="#674ea7" stroke-width="2" stroke-dasharray="5,3" marker-end="url(#arrow)"/>
    <text x="460" y="220" font-family="Arial" font-size="12" text-anchor="middle">10. Replay History</text>

    <!-- Message flow states section -->
    <rect x="50" y="400" width="700" height="150" rx="5" ry="5" fill="#d9ead3" stroke="#333333" />
    <text x="400" y="425" font-family="Arial" font-size="18" text-anchor="middle" font-weight="bold">Message Types</text>

    <text x="70" y="455" font-family="Arial" font-size="14" font-weight="bold">Event Creation:</text>
    <text x="70" y="475" font-family="Arial" font-size="13">• CreateEvent(streamerId, eventType, settings)</text>
    <text x="70" y="495" font-family="Arial" font-size="13">• EventCreated(eventId, streamerId)</text>

    <text x="400" y="455" font-family="Arial" font-size="14" font-weight="bold">Subscription:</text>
    <text x="400" y="475" font-family="Arial" font-size="13">• Subscribe(userId, eventId)</text>
    <text x="400" y="495" font-family="Arial" font-size="13">• Unsubscribe(userId, eventId)</text>

    <text x="70" y="525" font-family="Arial" font-size="14" font-weight="bold">Event Messages:</text>
    <text x="70" y="545" font-family="Arial" font-size="13">• EventUpdate(eventId, data)</text>
    <text x="70" y="565" font-family="Arial" font-size="13">• UserMessage(userId, eventId, content)</text>

    <text x="400" y="525" font-family="Arial" font-size="14" font-weight="bold">Status Messages:</text>
    <text x="400" y="545" font-family="Arial" font-size="13">• EventStarted(eventId)</text>
    <text x="400" y="565" font-family="Arial" font-size="13">• EventClosed(eventId, reason)</text>

    <!-- Arrow marker definition -->
    <defs>
        <marker id="arrow" markerWidth="10" markerHeight="10" refX="9" refY="3" orient="auto" markerUnits="strokeWidth">
            <path d="M0,0 L0,6 L9,3 z" fill="#000" />
        </marker>
    </defs>
</svg>